<svg width="16" height="15" viewBox="0 0 16 15" fill="none" xmlns="http://www.w3.org/2000/svg">
<path d="M13.4166 3.45837C13.4166 1.73248 12.0175 0.333374 10.2916 0.333374C8.56574 0.333374 7.16663 1.73248 7.16663 3.45837C7.16663 5.18426 8.56574 6.58337 10.2916 6.58337C12.0175 6.58337 13.4166 5.18426 13.4166 3.45837Z" fill="#434054" fill-opacity="0.6"/>
<path d="M7.50049 0.651607C6.77957 1.36853 6.33329 2.36134 6.33329 3.45837C6.33329 4.55541 6.77957 5.54822 7.50049 6.26514C7.08543 6.46893 6.61856 6.58337 6.12496 6.58337C4.39907 6.58337 2.99996 5.18426 2.99996 3.45837C2.99996 1.73248 4.39907 0.333374 6.12496 0.333374C6.61856 0.333374 7.08543 0.447813 7.50049 0.651607Z" fill="#434054" fill-opacity="0.6"/>
<path d="M15.9166 10.9584C15.9166 9.23248 14.5175 7.83337 12.7916 7.83337H7.79163C6.06574 7.83337 4.66663 9.23248 4.66663 10.9584C4.66663 12.6843 6.06574 14.0834 7.79163 14.0834H12.7916C14.5175 14.0834 15.9166 12.6843 15.9166 10.9584Z" fill="#434054" fill-opacity="0.6"/>
<path d="M3.83329 10.9584C3.83329 11.8124 4.10378 12.6033 4.56375 13.25H3.62496C1.89907 13.25 0.499961 11.8509 0.499961 10.125C0.499961 8.39915 1.89907 7.00004 3.62496 7.00004H7.79163C5.6055 7.00004 3.83329 8.77225 3.83329 10.9584Z" fill="#434054" fill-opacity="0.6"/>
</svg>
