<svg width="20" height="20" viewBox="0 0 20 20" fill="none" xmlns="http://www.w3.org/2000/svg">
<g clip-path="url(#clip0_672_2290)">
<path d="M3.05945 2.36018H3.05776C2.96461 2.35998 2.87233 2.37823 2.78627 2.41389C2.70021 2.44954 2.62206 2.5019 2.55635 2.56792C2.48935 2.63442 2.43622 2.71356 2.40006 2.80076C2.3639 2.88796 2.34543 2.98147 2.34571 3.07587V13.8076C2.34571 14.2011 2.66712 14.522 3.06227 14.523C4.72814 14.527 7.51912 14.8742 9.44452 16.8891V5.6581C9.44452 5.5247 9.41044 5.39938 9.34613 5.29567C7.76586 2.75075 4.72908 2.36408 3.05945 2.36018ZM17.6544 13.8076V3.0758C17.6544 2.88375 17.5796 2.70334 17.4438 2.56785C17.3781 2.50185 17.3 2.4495 17.2139 2.41385C17.1279 2.37819 17.0356 2.35993 16.9425 2.36011H16.9407C15.2711 2.36408 12.2344 2.75075 10.654 5.29567C10.5897 5.39938 10.5557 5.5247 10.5557 5.6581V16.889C12.4811 14.8742 15.2721 14.527 16.9379 14.523C17.333 14.522 17.6544 14.201 17.6544 13.8076Z" fill="#434054" fill-opacity="0.6"/>
<path d="M19.2844 4.83508H18.7655V13.8076C18.7655 14.8124 17.9469 15.6317 16.9405 15.6342C15.5275 15.6375 13.1977 15.9138 11.5476 17.4755C14.4014 16.7768 17.4098 17.231 19.1242 17.6217C19.2293 17.646 19.3384 17.6461 19.4435 17.6221C19.5486 17.5982 19.6469 17.5508 19.731 17.4834C19.8152 17.4166 19.8831 17.3316 19.9296 17.2348C19.9762 17.138 20.0003 17.0319 20 16.9244V5.55064C20.0001 5.15609 19.679 4.83508 19.2844 4.83508ZM1.23448 13.8076V4.83508H0.715558C0.321079 4.83508 0 5.15609 0 5.55064V16.9242C0 17.1431 0.0980475 17.3468 0.268957 17.4832C0.35309 17.5506 0.451392 17.598 0.556487 17.622C0.661582 17.646 0.770737 17.6458 0.87576 17.6215C2.59024 17.2307 5.59867 16.7766 8.45228 17.4753C6.80231 15.9137 4.47247 15.6375 3.05947 15.6341C2.05321 15.6317 1.23448 14.8124 1.23448 13.8076Z" fill="#434054" fill-opacity="0.6"/>
</g>
<defs>
<clipPath id="clip0_672_2290">
<rect width="20" height="20" fill="white"/>
</clipPath>
</defs>
</svg>
