<svg width="18" height="18" viewBox="0 0 18 18" fill="none" xmlns="http://www.w3.org/2000/svg">
<path fill-rule="evenodd" clip-rule="evenodd" d="M4.24497 3.13805C2.02262 4.75268 0.911447 5.55999 0.475025 6.75251C0.440016 6.84817 0.408526 6.94508 0.38062 7.04306C0.0327488 8.26434 0.457179 9.57061 1.30604 12.1831C2.1549 14.7957 2.57933 16.1019 3.57862 16.8855C3.65878 16.9483 3.74122 17.0082 3.82578 17.0651C4.87979 17.7733 6.25328 17.7733 9.00025 17.7733C11.7472 17.7733 13.1207 17.7733 14.1747 17.0651C14.2593 17.0082 14.3417 16.9483 14.4219 16.8855C15.4212 16.1019 15.8456 14.7957 16.6945 12.1831C17.5433 9.57061 17.9678 8.26434 17.6199 7.04306C17.592 6.94508 17.5605 6.84817 17.5255 6.75251C17.0891 5.55999 15.9779 4.75268 13.7555 3.13806C11.5332 1.52343 10.422 0.716102 9.153 0.669549C9.0512 0.665814 8.9493 0.665814 8.8475 0.669549C7.57849 0.716102 6.46731 1.52342 4.24497 3.13805ZM7.33358 13.2248C6.9884 13.2248 6.70858 13.5046 6.70858 13.8498C6.70858 14.195 6.9884 14.4748 7.33358 14.4748H10.6669C11.0121 14.4748 11.2919 14.195 11.2919 13.8498C11.2919 13.5046 11.0121 13.2248 10.6669 13.2248H7.33358Z" fill="#8B77FF"/>
</svg>
