<svg width="20" height="20" viewBox="0 0 20 20" fill="none" xmlns="http://www.w3.org/2000/svg">
<path d="M10.5908 3.72559C10.5908 3.3998 10.3258 3.13477 10 3.13477H9.40918V4.31641H10C10.3258 4.31641 10.5908 4.05137 10.5908 3.72559ZM10 5.48828H9.40918V6.66992H10C10.3258 6.66992 10.5908 6.40488 10.5908 6.0791C10.5908 5.75332 10.3258 5.48828 10 5.48828ZM3.53027 10.5859V18.3643C3.53027 19.2662 4.26406 20 5.16602 20H14.834C15.7359 20 16.4697 19.2662 16.4697 18.3643V10.5859H3.53027ZM7.64648 12.1582H12.3535C12.6771 12.1582 12.9395 12.4205 12.9395 12.7441C12.9395 13.0677 12.6771 13.3301 12.3535 13.3301H7.64648C7.32289 13.3301 7.06055 13.0677 7.06055 12.7441C7.06055 12.4205 7.32289 12.1582 7.64648 12.1582ZM7.64648 14.5117H12.3535C12.6771 14.5117 12.9395 14.7741 12.9395 15.0977C12.9395 15.4213 12.6771 15.6836 12.3535 15.6836H7.64648C7.32289 15.6836 7.06055 15.4213 7.06055 15.0977C7.06055 14.7741 7.32289 14.5117 7.64648 14.5117ZM7.64648 16.8652H12.3535C12.6771 16.8652 12.9395 17.1276 12.9395 17.4512C12.9395 17.7748 12.6771 18.0371 12.3535 18.0371H7.64648C7.32289 18.0371 7.06055 17.7748 7.06055 17.4512C7.06055 17.1276 7.32289 16.8652 7.64648 16.8652Z" fill="#434054" fill-opacity="0.6"/>
<path d="M16.4697 9.41406V1.63574C16.4697 0.733789 15.7359 0 14.834 0H5.16602C4.26406 0 3.53027 0.733789 3.53027 1.63574V9.41406H16.4697ZM11.7627 6.0791C11.7627 7.05105 10.972 7.8418 10 7.8418H8.82324C8.49965 7.8418 8.2373 7.57945 8.2373 7.25586V2.54883C8.2373 2.22523 8.49965 1.96289 8.82324 1.96289H10C10.972 1.96289 11.7627 2.75363 11.7627 3.72559C11.7627 4.17746 11.5916 4.59004 11.311 4.90234C11.5916 5.21465 11.7627 5.62723 11.7627 6.0791Z" fill="#434054" fill-opacity="0.6"/>
</svg>
