<svg width="18" height="18" viewBox="0 0 18 18" fill="none" xmlns="http://www.w3.org/2000/svg">
<path fill-rule="evenodd" clip-rule="evenodd" d="M16.6308 11.8829C18.2923 8.70053 16.7107 4.92554 14.8925 3.1074C11.6381 -0.146966 6.36177 -0.146966 3.1074 3.1074C-0.146966 6.36177 -0.146966 11.6381 3.1074 14.8925C5.00289 16.788 8.71325 18.3053 11.8841 16.6328C12.2099 16.4609 12.373 16.3749 12.4526 16.3429C12.7891 16.2075 12.9661 16.1869 13.3246 16.2414C13.4095 16.2542 13.5206 16.283 13.7427 16.3406C14.4092 16.5133 14.7425 16.5997 14.9854 16.591C15.8588 16.5595 16.5595 15.8588 16.591 14.9854C16.5997 14.7425 16.5134 14.4093 16.3406 13.7429C16.2831 13.5207 16.2543 13.4096 16.2414 13.3252C16.1868 12.9667 16.2064 12.7948 16.3405 12.4579C16.3721 12.3785 16.4583 12.2133 16.6308 11.8829ZM6.38155 8.88155C6.38155 9.34179 6.00845 9.71488 5.54822 9.71488C5.08798 9.71488 4.71488 9.34179 4.71488 8.88155C4.71488 8.42131 5.08798 8.04822 5.54822 8.04822C6.00845 8.04822 6.38155 8.42131 6.38155 8.88155ZM9.71488 8.88155C9.71488 9.34179 9.34179 9.71488 8.88155 9.71488C8.42131 9.71488 8.04822 9.34179 8.04822 8.88155C8.04822 8.42131 8.42131 8.04822 8.88155 8.04822C9.34179 8.04822 9.71488 8.42131 9.71488 8.88155ZM12.2149 9.71488C12.6751 9.71488 13.0482 9.34179 13.0482 8.88155C13.0482 8.42131 12.6751 8.04822 12.2149 8.04822C11.7546 8.04822 11.3815 8.42131 11.3815 8.88155C11.3815 9.34179 11.7546 9.71488 12.2149 9.71488Z" fill="#434054" fill-opacity="0.6"/>
</svg>
