<svg width="36" height="31" viewBox="0 0 36 31" fill="none" xmlns="http://www.w3.org/2000/svg">
<path d="M15.5956 2.84181C17.1855 2.55273 18.8145 2.55273 20.4044 2.84181C27.5487 4.14077 32.3697 10.8791 31.2926 18.0602L31.2803 18.1419C29.1043 18.2561 27.375 20.0567 27.375 22.2612V25.2612C27.375 27.5394 29.2218 29.3862 31.5 29.3862C33.7782 29.3862 35.625 27.5394 35.625 25.2612V22.2612C35.625 20.6998 34.7582 19.3428 33.4804 18.6422L33.5177 18.3939C34.7751 10.0108 29.1471 2.1445 20.8069 0.628102C18.9509 0.290633 17.0491 0.290633 15.1931 0.628102C6.85288 2.1445 1.22485 10.0108 2.48232 18.3939L2.51956 18.6422C1.24178 19.3428 0.375 20.6998 0.375 22.2612V25.2612C0.375 27.5394 2.22182 29.3862 4.5 29.3862C6.77817 29.3862 8.625 27.5394 8.625 25.2612V22.2612C8.625 20.0567 6.89573 18.2561 4.7197 18.1419L4.70743 18.0602C3.63027 10.8791 8.45128 4.14077 15.5956 2.84181Z" fill="#77BEFF"/>
<path d="M11.2955 16.9657C10.8562 16.5264 10.1438 16.5264 9.7045 16.9657C9.26516 17.405 9.26516 18.1173 9.7045 18.5567L10.3045 19.1567C10.397 19.2492 10.4349 19.2871 10.4653 19.3184C12.8694 21.7924 12.8694 25.73 10.4653 28.204C10.4349 28.2353 10.397 28.2732 10.3045 28.3657L9.7045 28.9657C9.26516 29.405 9.26516 30.1173 9.7045 30.5567C10.1438 30.996 10.8562 30.996 11.2955 30.5567L11.9036 29.9486C11.9856 29.8666 12.0359 29.8163 12.0789 29.772C15.3316 26.4248 15.3316 21.0975 12.0789 17.7504C12.0358 17.706 11.9857 17.6559 11.9034 17.5736L11.2955 16.9657Z" fill="#77BEFF"/>
<path d="M26.2955 18.5567C26.7348 18.1173 26.7348 17.405 26.2955 16.9657C25.8562 16.5264 25.1438 16.5264 24.7045 16.9657L24.0966 17.5736C24.0143 17.6559 23.9642 17.706 23.9211 17.7504C20.6684 21.0975 20.6684 26.4248 23.9211 29.772C23.9642 29.8163 24.0142 29.8664 24.0965 29.9486L24.7045 30.5567C25.1438 30.996 25.8562 30.996 26.2955 30.5567C26.7348 30.1173 26.7348 29.405 26.2955 28.9657L25.6955 28.3657C25.603 28.2732 25.5651 28.2353 25.5347 28.204C23.1306 25.73 23.1306 21.7924 25.5347 19.3184C25.5651 19.2871 25.603 19.2492 25.6955 19.1567L26.2955 18.5567Z" fill="#77BEFF"/>
</svg>
