<svg width="16" height="16" viewBox="0 0 16 16" fill="none" xmlns="http://www.w3.org/2000/svg">
<path fill-rule="evenodd" clip-rule="evenodd" d="M8.0001 10.6667C7.8481 10.6667 7.69677 10.6154 7.57344 10.512L3.57344 7.1787C3.29077 6.94336 3.2521 6.5227 3.4881 6.24003C3.72344 5.95736 4.14344 5.91936 4.42677 6.1547L8.00744 9.1387L11.5821 6.26203C11.8688 6.03136 12.2888 6.0767 12.5194 6.36336C12.7501 6.65003 12.7048 7.06936 12.4181 7.3007L8.4181 10.5194C8.2961 10.6174 8.1481 10.6667 8.0001 10.6667Z" fill="#8B77FF"/>
<mask id="mask0_672_2555" style="mask-type:luminance" maskUnits="userSpaceOnUse" x="3" y="6" width="10" height="5">
<path fill-rule="evenodd" clip-rule="evenodd" d="M8.0001 10.6667C7.8481 10.6667 7.69677 10.6154 7.57344 10.512L3.57344 7.1787C3.29077 6.94336 3.2521 6.5227 3.4881 6.24003C3.72344 5.95736 4.14344 5.91936 4.42677 6.1547L8.00744 9.1387L11.5821 6.26203C11.8688 6.03136 12.2888 6.0767 12.5194 6.36336C12.7501 6.65003 12.7048 7.06936 12.4181 7.3007L8.4181 10.5194C8.2961 10.6174 8.1481 10.6667 8.0001 10.6667Z" fill="white"/>
</mask>
<g mask="url(#mask0_672_2555)">
</g>
</svg>
