<svg width="12" height="15" viewBox="0 0 12 15" fill="none" xmlns="http://www.w3.org/2000/svg">
<path d="M3.76333 12.6667C3.90736 13.1479 4.20278 13.5699 4.60572 13.87C5.00866 14.17 5.49763 14.332 6 14.332C6.50237 14.332 6.99134 14.17 7.39428 13.87C7.79722 13.5699 8.09264 13.1479 8.23667 12.6667H3.76333ZM0 12H12V10L10.6667 8V4.66667C10.6667 4.05383 10.546 3.447 10.3114 2.88081C10.0769 2.31463 9.73317 1.80018 9.29983 1.36684C8.86649 0.933495 8.35204 0.589751 7.78586 0.355229C7.21967 0.120707 6.61284 0 6 0C5.38716 0 4.78033 0.120707 4.21414 0.355229C3.64796 0.589751 3.13351 0.933495 2.70017 1.36684C2.26683 1.80018 1.92308 2.31463 1.68856 2.88081C1.45404 3.447 1.33333 4.05383 1.33333 4.66667V8L0 10V12Z" fill="white"/>
</svg>
