<svg width="20" height="19" viewBox="0 0 20 19" fill="none" xmlns="http://www.w3.org/2000/svg">
<path fill-rule="evenodd" clip-rule="evenodd" d="M12.528 0.875C13.6711 0.874996 14.5673 0.874993 15.2876 0.933843C16.021 0.993769 16.627 1.11782 17.1754 1.39726C18.077 1.85665 18.8101 2.58969 19.2694 3.4913C19.5489 4.03974 19.6729 4.64566 19.7329 5.37911C19.7917 6.09937 19.7917 6.99555 19.7917 8.13856V8.19469C19.7917 9.3377 19.7917 10.234 19.7329 10.9542C19.6729 11.6877 19.5489 12.2936 19.2694 12.842C18.8101 13.7436 18.077 14.4767 17.1754 14.9361C16.627 15.2155 16.021 15.3396 15.2876 15.3995C14.5673 15.4583 13.6712 15.4583 12.5281 15.4583H10.625V16.9866C11.1453 17.023 11.6633 17.1049 12.1728 17.2323L13.485 17.5603C13.8198 17.644 14.0234 17.9834 13.9397 18.3183C13.856 18.6531 13.5167 18.8567 13.1818 18.773L11.8696 18.445C11.2558 18.2915 10.6279 18.2148 10 18.2148C9.37214 18.2148 8.74424 18.2915 8.1305 18.445L6.81829 18.773C6.48342 18.8567 6.14409 18.6531 6.06037 18.3183C5.97665 17.9834 6.18025 17.644 6.51512 17.5603L7.82733 17.2323C8.33683 17.1049 8.85474 17.023 9.37504 16.9866V15.4583H7.47202C6.32901 15.4583 5.43274 15.4583 4.71249 15.3995C3.97904 15.3396 3.37311 15.2155 2.82467 14.9361C1.92306 14.4767 1.19003 13.7436 0.730635 12.842C0.45119 12.2936 0.327143 11.6877 0.267217 10.9542C0.208367 10.2339 0.20837 9.33773 0.208374 8.19463V8.1387C0.20837 6.9956 0.208367 6.0994 0.267217 5.37911C0.327143 4.64566 0.45119 4.03974 0.730635 3.4913C1.19003 2.58969 1.92306 1.85665 2.82467 1.39726C3.37311 1.11782 3.97904 0.993769 4.71249 0.933843C5.43278 0.874993 6.32898 0.874996 7.47208 0.875H12.528ZM9.37504 12.3333C9.37504 12.6785 9.65486 12.9583 10 12.9583L15 12.9583C15.3452 12.9583 15.625 12.6785 15.625 12.3333C15.625 11.9882 15.3452 11.7083 15 11.7083L10 11.7083C9.65486 11.7083 9.37504 11.9882 9.37504 12.3333ZM6.66671 12.3333C6.66671 12.7936 6.29361 13.1667 5.83337 13.1667C5.37314 13.1667 5.00004 12.7936 5.00004 12.3333C5.00004 11.8731 5.37314 11.5 5.83337 11.5C6.29361 11.5 6.66671 11.8731 6.66671 12.3333Z" fill="#434054" fill-opacity="0.6"/>
</svg>
