<svg width="13" height="14" viewBox="0 0 13 14" fill="none" xmlns="http://www.w3.org/2000/svg">
<path fill-rule="evenodd" clip-rule="evenodd" d="M7.5193 0.434707C7.27263 0.333374 6.9593 0.333374 6.3333 0.333374C5.7073 0.333374 5.39397 0.333374 5.1473 0.434707C4.81893 0.569515 4.55755 0.829218 4.42063 1.15671C4.35797 1.30537 4.33397 1.47937 4.32397 1.73204C4.31952 1.91511 4.26846 2.09402 4.1756 2.25185C4.08274 2.40969 3.95116 2.54123 3.7933 2.63404C3.63246 2.72344 3.45166 2.7708 3.26765 2.77174C3.08364 2.77267 2.90237 2.72714 2.74063 2.63937C2.5153 2.52071 2.35197 2.45537 2.19063 2.43404C1.83767 2.3877 1.48068 2.48257 1.1973 2.69804C0.9853 2.85937 0.828633 3.12871 0.515966 3.66671C0.202633 4.20471 0.0466329 4.47337 0.0112995 4.73671C-0.0353671 5.08737 0.0606329 5.44204 0.277966 5.72271C0.376633 5.85071 0.515966 5.95804 0.7313 6.09271C1.0493 6.29071 1.2533 6.62804 1.2533 7.00004C1.2533 7.37204 1.0493 7.70937 0.731966 7.90671C0.515966 8.04204 0.376633 8.14937 0.2773 8.27737C0.170021 8.416 0.0912791 8.57452 0.0456224 8.74375C-3.4213e-05 8.91299 -0.0116999 9.0896 0.0112995 9.26337C0.0466329 9.52604 0.202633 9.79537 0.515966 10.3334C0.8293 10.8714 0.9853 11.14 1.1973 11.302C1.47997 11.5174 1.8373 11.612 2.19063 11.566C2.35197 11.5447 2.5153 11.4794 2.74063 11.3607C2.90245 11.2728 3.08384 11.2272 3.26798 11.2282C3.45213 11.2291 3.63305 11.2765 3.79397 11.366C4.11797 11.5527 4.30997 11.896 4.32397 12.268C4.33397 12.5214 4.35797 12.6947 4.42063 12.8434C4.55663 13.17 4.81797 13.43 5.1473 13.5654C5.39397 13.6667 5.7073 13.6667 6.3333 13.6667C6.9593 13.6667 7.27263 13.6667 7.5193 13.5654C7.84767 13.4306 8.10905 13.1709 8.24597 12.8434C8.30863 12.6947 8.33263 12.5214 8.34263 12.268C8.35597 11.896 8.54863 11.552 8.8733 11.366C9.03414 11.2766 9.21494 11.2293 9.39895 11.2283C9.58296 11.2274 9.76423 11.2729 9.92597 11.3607C10.1513 11.4794 10.3146 11.5447 10.476 11.566C10.8293 11.6127 11.1866 11.5174 11.4693 11.302C11.6813 11.1407 11.838 10.8714 12.1506 10.3334C12.464 9.79537 12.62 9.52671 12.6553 9.26337C12.6782 9.08956 12.6664 8.91292 12.6207 8.74368C12.5749 8.57444 12.496 8.41595 12.3886 8.27737C12.29 8.14937 12.1506 8.04204 11.9353 7.90737C11.6173 7.70937 11.4133 7.37204 11.4133 7.00004C11.4133 6.62804 11.6173 6.29071 11.9346 6.09337C12.1506 5.95804 12.29 5.85071 12.3893 5.72271C12.4966 5.58408 12.5753 5.42557 12.621 5.25633C12.6666 5.08709 12.6783 4.91048 12.6553 4.73671C12.62 4.47404 12.464 4.20471 12.1506 3.66671C11.8373 3.12871 11.6813 2.86004 11.4693 2.69804C11.1859 2.48257 10.8289 2.3877 10.476 2.43404C10.3146 2.45537 10.1513 2.52071 9.92597 2.63937C9.76415 2.72726 9.58276 2.77285 9.39862 2.77192C9.21448 2.77099 9.03355 2.72356 8.87263 2.63404C8.7149 2.54115 8.58345 2.40957 8.49071 2.25174C8.39798 2.09391 8.34701 1.91505 8.34263 1.73204C8.33263 1.47871 8.30863 1.30537 8.24597 1.15671C8.1782 0.994531 8.07915 0.847296 7.95446 0.723413C7.82978 0.599529 7.68191 0.501426 7.5193 0.434707ZM6.3333 9.00004C7.44663 9.00004 8.34863 8.10471 8.34863 7.00004C8.34863 5.89537 7.44597 5.00004 6.3333 5.00004C5.21997 5.00004 4.31797 5.89537 4.31797 7.00004C4.31797 8.10471 5.22063 9.00004 6.3333 9.00004Z" fill="white"/>
</svg>
