<svg width="20" height="20" viewBox="0 0 20 20" fill="none" xmlns="http://www.w3.org/2000/svg">
<g clip-path="url(#clip0_672_2285)">
<path d="M13.0804 12.2006C12.95 12.1767 12.8291 12.1647 12.7173 12.1647C12.4832 12.1647 12.2904 12.218 12.1388 12.3243C11.9872 12.4308 11.9114 12.5691 11.9114 12.7393C11.9114 12.8936 11.9698 13.0199 12.087 13.1183C12.2039 13.2168 12.3529 13.2659 12.5338 13.2659C12.6721 13.2659 12.8064 13.242 12.9368 13.1941C13.0671 13.1462 13.1748 13.0823 13.26 13.0025C13.3823 12.9068 13.4435 12.8058 13.4435 12.6993V12.3004C13.3318 12.2579 13.2107 12.2246 13.0804 12.2006ZM1.86926 2.53176C2.06579 3.31164 2.77293 3.89074 3.61297 3.89074H18.1308V2.53176H1.86926ZM7.92149 9.93043L7.24321 11.9333H8.58383L7.92149 9.93043ZM3.61297 0C2.77293 0 2.06579 0.579102 1.86926 1.35902H18.1308V0H3.61297Z" fill="#434054" fill-opacity="0.6"/>
<path d="M3.61296 5.06339C2.97882 5.06339 2.39097 4.86304 1.90796 4.52319V16.8819C1.90796 18.6012 3.30675 20 5.02601 20H18.105V5.06339H3.61296ZM9.23811 14.1037L8.79921 12.835H7.03573L6.60483 14.1037H5.26425L7.33101 8.43815H8.51198L10.5787 14.1037H9.23811ZM14.6883 14.1556C14.5978 14.1636 14.5154 14.1676 14.4409 14.1676C14.2016 14.1676 14.0206 14.121 13.8983 14.028C13.7758 13.935 13.6988 13.8033 13.6669 13.633L13.643 13.4414C13.4567 13.6808 13.2346 13.8644 12.9766 13.992C12.7185 14.1197 12.446 14.1835 12.1587 14.1835C11.9512 14.1835 11.7583 14.1503 11.5802 14.0838C11.4019 14.0173 11.249 13.9242 11.1214 13.8045C10.9937 13.6848 10.8925 13.5439 10.8181 13.3816C10.7435 13.2193 10.7064 13.0424 10.7064 12.8509C10.7064 12.6434 10.7503 12.4546 10.8381 12.2843C10.9259 12.1141 11.0496 11.9679 11.2092 11.8454C11.3688 11.7231 11.5575 11.6273 11.7757 11.5582C11.9938 11.4891 12.2358 11.4544 12.5019 11.4544C12.6774 11.4544 12.8476 11.4691 13.0126 11.4983C13.1774 11.5276 13.321 11.5715 13.4435 11.63V11.4385C13.4435 10.9544 13.1641 10.7123 12.6056 10.7123C12.3768 10.7123 12.1587 10.751 11.9512 10.828C11.7438 10.9052 11.5256 11.0209 11.2969 11.1751L10.9219 10.3771C11.1984 10.1964 11.4857 10.0607 11.7837 9.97019C12.0816 9.8798 12.3981 9.83452 12.7333 9.83452C13.3663 9.83452 13.8557 9.98351 14.2015 10.2814C14.5473 10.5794 14.7202 11.0155 14.7202 11.5901V12.6673C14.7202 12.795 14.7401 12.8842 14.78 12.9347C14.8199 12.9853 14.8904 13.0158 14.9915 13.0264V14.1037H14.9915C14.8798 14.1303 14.7787 14.1476 14.6883 14.1556Z" fill="#434054" fill-opacity="0.6"/>
</g>
<defs>
<clipPath id="clip0_672_2285">
<rect width="20" height="20" fill="white"/>
</clipPath>
</defs>
</svg>
