<svg width="29" height="32" viewBox="0 0 29 32" fill="none" xmlns="http://www.w3.org/2000/svg">
<path d="M23.3368 14.47C23.5589 14.0526 23.868 13.6878 24.2432 13.4002C24.6184 13.1125 25.051 12.9087 25.5117 12.8026C25.9724 12.6965 26.4505 12.6905 26.9138 12.7851C27.377 12.8796 27.8145 13.0725 28.1968 13.3506V4.92437C28.1964 4.77532 28.137 4.6325 28.0316 4.52711C27.9262 4.42172 27.7834 4.36231 27.6343 4.36187H19.7424C19.8677 3.87568 19.8801 3.36728 19.7786 2.87558C19.677 2.38389 19.4644 1.92194 19.1568 1.5251C18.8493 1.12827 18.455 0.807069 18.0042 0.586098C17.5534 0.365127 17.0579 0.250244 16.5559 0.250244C16.0538 0.250244 15.5584 0.365127 15.1076 0.586098C14.6568 0.807069 14.2625 1.12827 13.9549 1.5251C13.6474 1.92194 13.4347 2.38389 13.3332 2.87558C13.2317 3.36728 13.2441 3.87568 13.3693 4.36187H5.47745C5.3284 4.36231 5.18558 4.42172 5.08019 4.52711C4.9748 4.6325 4.91539 4.77532 4.91495 4.92437V12.8106C4.42854 12.6857 3.92 12.6737 3.42824 12.7755C2.93648 12.8773 2.47452 13.0903 2.0777 13.3981C1.68089 13.7058 1.35972 14.1003 1.13878 14.5513C0.917842 15.0023 0.802979 15.4978 0.802979 16C0.802979 16.5022 0.917842 16.9977 1.13878 17.4487C1.35972 17.8997 1.68089 18.2941 2.0777 18.6019C2.47452 18.9097 2.93648 19.1227 3.42824 19.2245C3.92 19.3263 4.42854 19.3143 4.91495 19.1894V27.0756C4.91539 27.2247 4.9748 27.3675 5.08019 27.4729C5.18558 27.5783 5.3284 27.6377 5.47745 27.6381H13.3693C13.2441 28.1243 13.2317 28.6327 13.3332 29.1244C13.4347 29.6161 13.6474 30.078 13.9549 30.4749C14.2625 30.8717 14.6568 31.1929 15.1076 31.4139C15.5584 31.6349 16.0538 31.7497 16.5559 31.7497C17.0579 31.7497 17.5534 31.6349 18.0042 31.4139C18.455 31.1929 18.8493 30.8717 19.1568 30.4749C19.4644 30.078 19.677 29.6161 19.7786 29.1244C19.8801 28.6327 19.8677 28.1243 19.7424 27.6381H27.6343C27.7834 27.6377 27.9262 27.5783 28.0316 27.4729C28.137 27.3675 28.1964 27.2247 28.1968 27.0756V18.655C25.4012 20.6912 21.7264 17.5356 23.3368 14.47ZM22.2962 10.5887L19.6974 21.6644C19.669 21.7815 19.6037 21.8864 19.5111 21.9636C19.4185 22.0409 19.3035 22.0863 19.1832 22.0932C19.0628 22.1001 18.9434 22.0682 18.8426 22.0021C18.7417 21.9361 18.6648 21.8394 18.6231 21.7262L16.5531 15.865L14.4887 21.7262C14.4479 21.8403 14.3713 21.9382 14.2703 22.0051C14.1693 22.072 14.0493 22.1044 13.9284 22.0974C13.8074 22.0904 13.6919 22.0445 13.5993 21.9664C13.5066 21.8884 13.4417 21.7824 13.4143 21.6644L10.8156 10.5887C10.782 10.4433 10.8076 10.2905 10.8867 10.1639C10.9658 10.0373 11.092 9.94731 11.2374 9.91374C11.3829 9.88018 11.5357 9.90577 11.6623 9.98488C11.7889 10.064 11.8789 10.1902 11.9124 10.3356L14.0668 19.5381L16.0243 13.9862C16.0646 13.8777 16.1371 13.7841 16.2321 13.7181C16.3272 13.652 16.4401 13.6166 16.5559 13.6166C16.6716 13.6166 16.7846 13.652 16.8796 13.7181C16.9746 13.7841 17.0472 13.8777 17.0874 13.9862L19.0449 19.5381L21.1993 10.3356C21.2329 10.1902 21.3229 10.064 21.4494 9.98488C21.576 9.90577 21.7289 9.88018 21.8743 9.91374C22.0198 9.94731 22.1459 10.0373 22.2251 10.1639C22.3042 10.2905 22.3298 10.4433 22.2962 10.5887Z" fill="#E477FF"/>
</svg>
