<svg width="28" height="32" viewBox="0 0 28 32" fill="none" xmlns="http://www.w3.org/2000/svg">
<path d="M26.6399 29.3333H4.14661C3.41861 29.3333 2.69328 28.752 2.69328 27.88C2.69328 27.0667 3.34661 26.4133 4.14661 26.4133H26.6399C27.3919 26.4133 27.9733 25.784 27.9733 25.08L27.9599 3.30667C27.9599 2.42968 27.6116 1.58862 26.9915 0.9685C26.3713 0.34838 25.5303 0 24.6533 0H4.14661C1.93995 0 0.0266113 1.80667 0.0266113 4.12V27.88C0.0266113 30.2267 1.93995 32 4.14661 32H26.6399C27.3733 32 27.9733 31.4 27.9733 30.6667C27.9733 29.9333 27.3733 29.3333 26.6399 29.3333ZM2.69328 4.12C2.69328 3.33333 3.35995 2.66667 4.14661 2.66667H5.37328V23.7467C4.53461 23.8 3.82928 23.604 2.69328 24.0133V4.12ZM12.3066 10.76C12.3066 10.0533 12.6933 9.4 13.3066 9.06667C13.9199 8.72 14.6799 8.74667 15.2799 9.13333L19.0933 11.5867C19.6533 11.9333 19.9866 12.5467 19.9866 13.2133C19.9866 13.8667 19.6533 14.48 19.0933 14.8267L15.2799 17.28C14.9879 17.4688 14.6501 17.5747 14.3025 17.5864C13.955 17.5982 13.6107 17.5153 13.3066 17.3467C12.6933 17.0133 12.3066 16.36 12.3066 15.6533V10.76Z" fill="#FFB877"/>
</svg>
