<?xml version="1.0" standalone="no"?>
<!DOCTYPE svg PUBLIC "-//W3C//DTD SVG 20010904//EN"
 "http://www.w3.org/TR/2001/REC-SVG-20010904/DTD/svg10.dtd">
<svg version="1.0" xmlns="http://www.w3.org/2000/svg"
 width="462.000000pt" height="462.000000pt" viewBox="0 0 462.000000 462.000000"
 preserveAspectRatio="xMidYMid meet">
<metadata>
Created by potrace 1.14, written by Peter Selinger 2001-2017
</metadata>
<g transform="translate(0.000000,462.000000) scale(0.100000,-0.100000)"
fill="#000000" stroke="none">
<path d="M2207 4614 c-1 -1 -46 -4 -100 -8 -55 -3 -102 -8 -105 -10 -4 -2 -31
-7 -60 -10 -30 -3 -75 -11 -100 -17 -26 -6 -56 -12 -66 -15 -54 -11 -211 -58
-281 -85 -558 -215 -996 -614 -1262 -1153 -42 -83 -110 -249 -118 -286 -2 -8
-9 -31 -15 -50 -18 -55 -57 -220 -65 -275 -5 -27 -10 -57 -11 -65 -19 -91 -25
-426 -12 -570 41 -421 217 -851 491 -1199 106 -134 313 -332 441 -422 27 -19
66 -46 88 -61 21 -16 43 -28 48 -28 4 0 10 -4 12 -9 7 -17 230 -132 350 -180
183 -73 404 -131 558 -147 25 -3 52 -8 60 -11 8 -4 585 -7 1283 -8 l1267 -2 1
46 c3 277 -1 2393 -5 2446 -51 609 -340 1170 -816 1580 -341 293 -802 485
-1280 531 -58 6 -298 12 -303 8z"/>
</g>
</svg>
